<svg xmlns="http://www.w3.org/2000/svg" xmlns:xlink="http://www.w3.org/1999/xlink" width="500" zoomAndPan="magnify" viewBox="0 0 375 374.999991" height="500" preserveAspectRatio="xMidYMid meet" version="1.0"><defs><g/></defs><rect x="-37.5" width="450" fill="#ffffff" y="-37.499999" height="449.999989" fill-opacity="1"/><rect x="-37.5" width="450" fill="#ffffff" y="-37.499999" height="449.999989" fill-opacity="1"/><rect x="-37.5" width="450" fill="#000000" y="-37.499999" height="449.999989" fill-opacity="1"/><g fill="#ffffff" fill-opacity="1"><g transform="translate(44.944118, 298.835661)"><g><path d="M 101.964844 -32.796875 C 80.324219 -31.90625 34.359375 -34.136719 34.359375 -89.246094 C 34.359375 -131.640625 63.144531 -147.929688 101.964844 -145.917969 L 101.964844 -106.429688 L 136.101562 -106.429688 L 136.101562 -176.488281 C 136.101562 -177.378906 135.210938 -178.496094 133.648438 -178.496094 L 104.644531 -178.496094 C 60.910156 -178.496094 0 -168.453125 0 -89.246094 C 0 -12.941406 60.242188 0 104.644531 0 L 133.648438 0 C 135.210938 0 136.101562 -1.117188 136.101562 -2.007812 L 136.101562 -32.796875 Z M 101.964844 -32.796875 "/></g></g></g><g fill="#ffffff" fill-opacity="1"><g transform="translate(193.885622, 298.835661)"><g><path d="M 142.351562 -3.347656 L 70.730469 -87.6875 L 141.679688 -175.148438 C 143.242188 -176.710938 142.125 -178.496094 139.671875 -178.496094 L 103.304688 -178.496094 C 102.859375 -178.496094 101.519531 -178.050781 101.296875 -177.824219 L 34.136719 -95.273438 L 34.136719 -176.488281 C 34.136719 -177.378906 33.246094 -178.496094 31.90625 -178.496094 L 2.453125 -178.496094 C 1.117188 -178.496094 0 -177.378906 0 -176.488281 L 0 -10.933594 C 0 -10.933594 43.507812 -60.242188 47.96875 -64.925781 L 99.957031 -0.667969 C 100.179688 -0.445312 101.519531 0 101.964844 0 L 140.34375 0 C 142.574219 0 143.6875 -1.5625 142.351562 -3.347656 Z M 142.351562 -3.347656 "/></g></g></g></svg>